<?xml version="1.0" encoding="UTF-8" standalone="no"?>
<!-- Created with Inkscape (http://www.inkscape.org/) -->

<svg
   xmlns:dc="http://purl.org/dc/elements/1.1/"
   xmlns:cc="http://creativecommons.org/ns#"
   xmlns:rdf="http://www.w3.org/1999/02/22-rdf-syntax-ns#"
   xmlns:svg="http://www.w3.org/2000/svg"
   xmlns="http://www.w3.org/2000/svg"
   xmlns:sodipodi="http://sodipodi.sourceforge.net/DTD/sodipodi-0.dtd"
   xmlns:inkscape="http://www.inkscape.org/namespaces/inkscape"
   width="158.47791mm"
   height="173.57532mm"
   viewBox="0 0 561.53587 615.03064"
   id="svg7427"
   version="1.1"
   inkscape:version="0.91 r13725"
   sodipodi:docname="favicon.svg"
   inkscape:export-filename="/home/enzo/Documents/git/md5/earthsun/css/img/logo.png"
   inkscape:export-xdpi="127.12096"
   inkscape:export-ydpi="127.12096">
  <defs
     id="defs7429" />
  <sodipodi:namedview
     id="base"
     pagecolor="#ffffff"
     bordercolor="#666666"
     borderopacity="1.0"
     inkscape:pageopacity="0.0"
     inkscape:pageshadow="2"
     inkscape:zoom="0.35"
     inkscape:cx="-301.76125"
     inkscape:cy="174.2791"
     inkscape:document-units="px"
     inkscape:current-layer="layer1"
     showgrid="false"
     inkscape:window-width="1440"
     inkscape:window-height="837"
     inkscape:window-x="0"
     inkscape:window-y="30"
     inkscape:window-maximized="1"
     fit-margin-top="0"
     fit-margin-left="0"
     fit-margin-right="0"
     fit-margin-bottom="0" />
  <metadata
     id="metadata7432">
    <rdf:RDF>
      <cc:Work
         rdf:about="">
        <dc:format>image/svg+xml</dc:format>
        <dc:type
           rdf:resource="http://purl.org/dc/dcmitype/StillImage" />
        <dc:title></dc:title>
      </cc:Work>
    </rdf:RDF>
  </metadata>
  <g
     inkscape:label="Layer 1"
     inkscape:groupmode="layer"
     id="layer1"
     transform="translate(-258.1449,-97.324919)">
    <g
       id="g4727">
      <g
         transform="matrix(14.545331,0,0,-14.545331,819.25219,392.93711)"
         id="g1624">
        <path
           inkscape:connector-curvature="0"
           id="path1626"
           style="fill:#efb700;fill-opacity:1;fill-rule:nonzero;stroke:none"
           d="m 0,0 c -0.517,4.712 -5.917,5.514 -9.246,4.217 3.581,0.204 7.473,-0.963 7.333,-4.452 -0.14,-3.489 -5.401,-5.057 -12.174,-1.495 -1.871,0.984 -3.619,1.871 -5.255,2.598 -7.453,3.91 -13.263,5.098 -17.115,2.09 0.058,0.007 -2.415,-1.591 -2.09,-4.552 0.518,-4.713 5.917,-5.514 9.246,-4.217 -3.581,-0.204 -7.473,0.963 -7.332,4.452 0.14,3.489 5.4,5.057 12.174,1.494 1.864,-0.98 3.763,-1.942 5.404,-2.673 l 0,-0.002 C -11.569,-6.48 -5.953,-7.569 -2.089,-4.552 -2.147,-4.559 0.325,-2.961 0,0" />
      </g>
      <g
         transform="matrix(14.545331,0,0,-14.545331,416.51237,269.98392)"
         id="g1628">
        <path
           inkscape:connector-curvature="0"
           id="path1630"
           style="fill:#efb700;fill-opacity:1;fill-rule:nonzero;stroke:none"
           d="m 0,0 c 0,0 -1.532,6.961 5.766,9.213 7.297,2.251 14.023,-7.861 5.576,-13.997 3.024,0.972 9.99,7.271 2.861,14.268 C 7.828,15.742 -4.126,8.678 0,0" />
      </g>
      <g
         transform="matrix(14.545331,0,0,-14.545331,661.32479,539.69659)"
         id="g1632">
        <path
           inkscape:connector-curvature="0"
           id="path1634"
           style="fill:#efb700;fill-opacity:1;fill-rule:nonzero;stroke:none"
           d="m 0,0 c 0,0 1.532,-6.961 -5.766,-9.213 -7.297,-2.251 -14.023,7.861 -5.576,13.997 -3.024,-0.972 -9.99,-7.271 -2.861,-14.268 C -7.829,-15.742 4.126,-8.678 0,0" />
      </g>
    </g>
  </g>
</svg>
