<?xml version="1.0" encoding="UTF-8" standalone="no"?>
<!-- Created with Inkscape (http://www.inkscape.org/) -->

<svg
   xmlns:dc="http://purl.org/dc/elements/1.1/"
   xmlns:cc="http://creativecommons.org/ns#"
   xmlns:rdf="http://www.w3.org/1999/02/22-rdf-syntax-ns#"
   xmlns:svg="http://www.w3.org/2000/svg"
   xmlns="http://www.w3.org/2000/svg"
   xmlns:sodipodi="http://sodipodi.sourceforge.net/DTD/sodipodi-0.dtd"
   xmlns:inkscape="http://www.inkscape.org/namespaces/inkscape"
   width="2500mm"
   height="500mm"
   viewBox="0 0 8858.2675 1771.6535"
   id="svg7427"
   version="1.1"
   inkscape:version="0.91 r13725"
   sodipodi:docname="logo-horizontal.svg"
   inkscape:export-filename="/home/enzo/Documents/git/md5/earthsun/css/img/logo.png"
   inkscape:export-xdpi="127.12096"
   inkscape:export-ydpi="127.12096">
  <defs
     id="defs7429" />
  <sodipodi:namedview
     id="base"
     pagecolor="#ffffff"
     bordercolor="#666666"
     borderopacity="1.0"
     inkscape:pageopacity="0.0"
     inkscape:pageshadow="2"
     inkscape:zoom="0.0875"
     inkscape:cx="3242.1003"
     inkscape:cy="514.28571"
     inkscape:document-units="px"
     inkscape:current-layer="layer1"
     showgrid="false"
     inkscape:window-width="1440"
     inkscape:window-height="837"
     inkscape:window-x="0"
     inkscape:window-y="30"
     inkscape:window-maximized="1" />
  <metadata
     id="metadata7432">
    <rdf:RDF>
      <cc:Work
         rdf:about="">
        <dc:format>image/svg+xml</dc:format>
        <dc:type
           rdf:resource="http://purl.org/dc/dcmitype/StillImage" />
        <dc:title></dc:title>
      </cc:Work>
    </rdf:RDF>
  </metadata>
  <g
     inkscape:label="Layer 1"
     inkscape:groupmode="layer"
     id="layer1"
     transform="translate(0,719.29134)">
    <g
       id="g4143"
       transform="matrix(2.4772394,0,0,2.4772394,-439.91323,-836.35086)">
      <g
         style="fill:#333333;fill-opacity:1"
         transform="matrix(14.545331,0,0,-14.545331,819.25219,392.93711)"
         id="g1624">
        <path
           inkscape:connector-curvature="0"
           id="path1626"
           style="fill:#333333;fill-opacity:1;fill-rule:nonzero;stroke:none"
           d="m 0,0 c -0.517,4.712 -5.917,5.514 -9.246,4.217 3.581,0.204 7.473,-0.963 7.333,-4.452 -0.14,-3.489 -5.401,-5.057 -12.174,-1.495 -1.871,0.984 -3.619,1.871 -5.255,2.598 -7.453,3.91 -13.263,5.098 -17.115,2.09 0.058,0.007 -2.415,-1.591 -2.09,-4.552 0.518,-4.713 5.917,-5.514 9.246,-4.217 -3.581,-0.204 -7.473,0.963 -7.332,4.452 0.14,3.489 5.4,5.057 12.174,1.494 1.864,-0.98 3.763,-1.942 5.404,-2.673 l 0,-0.002 C -11.569,-6.48 -5.953,-7.569 -2.089,-4.552 -2.147,-4.559 0.325,-2.961 0,0" />
      </g>
      <g
         style="fill:#333333;fill-opacity:1"
         transform="matrix(14.545331,0,0,-14.545331,416.51237,269.98392)"
         id="g1628">
        <path
           inkscape:connector-curvature="0"
           id="path1630"
           style="fill:#333333;fill-opacity:1;fill-rule:nonzero;stroke:none"
           d="m 0,0 c 0,0 -1.532,6.961 5.766,9.213 7.297,2.251 14.023,-7.861 5.576,-13.997 3.024,0.972 9.99,7.271 2.861,14.268 C 7.828,15.742 -4.126,8.678 0,0" />
      </g>
      <g
         style="fill:#333333;fill-opacity:1"
         transform="matrix(14.545331,0,0,-14.545331,661.32479,539.69659)"
         id="g1632">
        <path
           inkscape:connector-curvature="0"
           id="path1634"
           style="fill:#333333;fill-opacity:1;fill-rule:nonzero;stroke:none"
           d="m 0,0 c 0,0 1.532,-6.961 -5.766,-9.213 -7.297,-2.251 -14.023,7.861 -5.576,13.997 -3.024,-0.972 -9.99,-7.271 -2.861,-14.268 C -7.829,-15.742 4.126,-8.678 0,0" />
      </g>
    </g>
    <g
       id="g1636"
       transform="matrix(102.03408,0,0,-102.03408,2099.9037,607.67972)">
      <path
         d="m 0,0 5.667,0 0,1.184 -4.33,0 0,1.771 3.681,0 0,1.158 -3.681,0 0,3.363 4.152,0 0,1.184 L 0,8.66 0,0 Z m 9.055,2.356 1.082,2.7 c 0.051,0.127 0.102,0.265 0.153,0.414 0.051,0.148 0.097,0.286 0.14,0.414 0.042,0.152 0.085,0.305 0.127,0.458 0.051,-0.153 0.098,-0.306 0.14,-0.458 0.043,-0.128 0.087,-0.266 0.134,-0.414 0.047,-0.149 0.1,-0.287 0.159,-0.414 l 1.083,-2.7 -3.018,0 z M 6.8,0 l 1.299,0 0.497,1.223 3.961,0 0.496,-1.223 1.401,0 -3.795,8.749 -0.153,0 L 6.8,0 Z m 10.405,3.388 0,4.088 0.767,0 c 0.853,0 1.468,-0.179 1.848,-0.535 0.379,-0.357 0.569,-0.862 0.569,-1.516 0,-0.645 -0.188,-1.146 -0.563,-1.503 C 19.451,3.566 18.833,3.388 17.972,3.388 l -0.767,0 z m 2.827,-0.714 c 0.569,0.247 1,0.599 1.293,1.057 0.293,0.459 0.439,1.023 0.439,1.694 0,0.492 -0.083,0.938 -0.248,1.337 -0.166,0.399 -0.406,0.739 -0.72,1.019 -0.314,0.28 -0.705,0.497 -1.171,0.65 -0.467,0.152 -0.998,0.229 -1.592,0.229 l -2.165,0 0,-8.66 1.337,0 0,2.229 0.818,0 c 0.12,0 0.241,0.004 0.365,0.012 0.123,0.009 0.245,0.021 0.364,0.039 L 20.312,0 21.866,0 20.032,2.674 Z M 25.381,0 l 1.337,0 0,7.476 2.573,0 0,1.184 -6.483,0 0,-1.184 2.573,0 0,-7.476 z m 5.361,0 1.338,0 0,2.802 4.19,0 0,-2.802 1.337,0 0,8.66 -1.337,0 0,-4.674 -4.19,0 0,4.674 -1.338,0 0,-8.66 z m 12.423,0.044 c 0.344,0.106 0.641,0.261 0.892,0.464 0.25,0.204 0.446,0.454 0.586,0.75 0.14,0.297 0.21,0.636 0.21,1.018 0,0.347 -0.049,0.654 -0.147,0.921 -0.098,0.267 -0.243,0.507 -0.435,0.719 -0.191,0.212 -0.43,0.404 -0.715,0.578 -0.285,0.174 -0.611,0.341 -0.977,0.502 l -0.562,0.255 c -0.443,0.186 -0.763,0.373 -0.958,0.559 -0.196,0.186 -0.294,0.441 -0.294,0.763 0,0.297 0.1,0.538 0.299,0.725 0.2,0.186 0.473,0.279 0.822,0.279 0.339,0 0.613,-0.068 0.821,-0.203 0.208,-0.136 0.397,-0.349 0.567,-0.637 l 1.057,0.649 C 44.067,7.857 43.739,8.204 43.344,8.427 42.949,8.65 42.463,8.762 41.886,8.762 41.529,8.762 41.2,8.706 40.9,8.596 40.6,8.485 40.344,8.332 40.134,8.137 39.924,7.941 39.76,7.709 39.642,7.442 39.525,7.174 39.466,6.878 39.466,6.555 c 0,-0.332 0.046,-0.625 0.14,-0.88 0.093,-0.255 0.227,-0.483 0.401,-0.683 0.174,-0.2 0.386,-0.378 0.637,-0.535 0.25,-0.158 0.533,-0.305 0.847,-0.44 L 42.064,3.761 C 42.301,3.659 42.51,3.557 42.688,3.455 42.866,3.353 43.017,3.245 43.14,3.13 43.263,3.015 43.356,2.887 43.42,2.747 43.484,2.607 43.516,2.443 43.516,2.256 43.516,1.899 43.376,1.612 43.095,1.395 42.815,1.178 42.454,1.07 42.013,1.07 41.486,1.07 41.075,1.186 40.778,1.42 40.48,1.653 40.23,1.94 40.026,2.28 L 38.918,1.668 c 0.119,-0.246 0.272,-0.477 0.459,-0.692 0.186,-0.215 0.409,-0.404 0.668,-0.568 0.259,-0.164 0.554,-0.292 0.885,-0.384 0.332,-0.092 0.701,-0.139 1.108,-0.139 0.408,0 0.784,0.054 1.127,0.159 m 7.871,0.039 c 0.403,0.131 0.751,0.329 1.044,0.592 0.293,0.263 0.524,0.592 0.694,0.987 0.17,0.395 0.255,0.855 0.255,1.382 l 0,5.616 -1.338,0 0,-5.54 c 0,-0.705 -0.168,-1.218 -0.504,-1.541 -0.337,-0.323 -0.824,-0.484 -1.463,-0.484 -0.639,0 -1.125,0.161 -1.457,0.484 -0.332,0.323 -0.498,0.836 -0.498,1.541 l 0,5.54 -1.337,0 0,-5.616 c 0,-0.527 0.083,-0.987 0.248,-1.382 0.166,-0.395 0.397,-0.724 0.694,-0.987 0.297,-0.263 0.645,-0.461 1.045,-0.592 0.399,-0.132 0.836,-0.198 1.311,-0.198 0.467,0 0.902,0.066 1.306,0.198 m 10.78,-0.172 0.165,0 0,8.749 -1.248,0 0,-4.763 c 0,-0.119 0.002,-0.251 0.007,-0.395 0.004,-0.144 0.014,-0.28 0.032,-0.407 0.016,-0.153 0.033,-0.302 0.051,-0.446 -0.094,0.11 -0.187,0.225 -0.281,0.344 C 60.457,3.086 60.37,3.19 60.281,3.305 60.192,3.419 60.105,3.523 60.02,3.617 l -4.775,5.132 -0.179,0 0,-8.749 1.248,0 0,4.776 c 0,0.135 -0.004,0.278 -0.012,0.426 C 56.293,5.351 56.28,5.484 56.263,5.603 56.246,5.748 56.233,5.888 56.225,6.024 56.318,5.905 56.412,5.79 56.505,5.68 56.59,5.586 56.677,5.482 56.766,5.368 56.855,5.253 56.947,5.149 57.04,5.056 l 4.776,-5.145 z"
         style="fill:#3a3a3a;fill-opacity:1;fill-rule:nonzero;stroke:none"
         id="path1638"
         inkscape:connector-curvature="0" />
    </g>
  </g>
</svg>
